/* XPM */
static char * run_xpm[] = {
"16 16 2 1",
" 	c #F5F5F5",
".	c #555E70",
"                ",
" .............. ",
" .............. ",
" .............. ",
" .............. ",
" ..          .. ",
" ..          .. ",
" ..          .. ",
" ..          .. ",
" ..          .. ",
" ..          .. ",
" ..          .. ",
" ..          .. ",
" .............. ",
" .............. ",
"                ",
"                ",
"                "};
