#define de8f34580fda42fcd5b29667576c888a2OP0YXruiFV92KhL_width 16
#define de8f34580fda42fcd5b29667576c888a2OP0YXruiFV92KhL_height 16
static char de8f34580fda42fcd5b29667576c888a2OP0YXruiFV92KhL_bits[] = {
  0x00, 0x00, 0x7E, 0x7E, 0x7E, 0x7E, 0x7E, 0x7E, 0x7E, 0x7E, 0x7E, 0x7E, 
  0x7E, 0x7E, 0x7E, 0x00, 0x7E, 0x00, 0x7E, 0x7E, 0x7E, 0x7E, 0x7E, 0x7E, 
  0x7E, 0x7E, 0x7E, 0x7E, 0x7E, 0x7E, 0x00, 0x00, };
