/* XPM */
static char * run_xpm[] = {
"16 16 2 1",
" 	c #f5f5f5",
".	c #555E70",
"                ",
" ......  ...... ",
" ......  ...... ",
" ......  ...... ",
" ......  ...... ",
" ......  ...... ",
" ......  ...... ",
" ......         ",
" ......         ",
" ......  ...... ",
" ......  ...... ",
" ......  ...... ",
" ......  ...... ",
" ......  ...... ",
" ......  ...... ",
"                ",
"                ",
"                "};
